:SAMPLES-PER-SECOND 30
:FULLY-SPECIFIED
:DEGREES
177
root  -41.6255 41.435 -6.04929 -160.049 -86.4708 160.751
RightUpLeg  1.49533 -8.48892 -6.93844
RightLeg  4.99473 0.72819 2.99374
RightFoot  -4.16314 -0.0176045 -0.325546
RightToes  2.91037e-010 0 -3.6325e-017
Spine  1.43374 3.95863 7.0954
Spine1  16.0124 7.5572 -9.62108
HEad  -17.7903 -8.94331 -0.154434
LeftShoulder1  9.71509 -14.2908 -47.6546
LeftArm  -8.67008 16.1391 -23.9331
LeftForeArm  23.6664 -18.2977 -3.95604
LeftHand  -0.244104 0.0205437 5.32207
RightShoulder  7.21498 12.2972 39.5423
RightArm  2.28443 27.7688 33.3598
RightForeArm  -16.0532 58.8174 20.3734
RightHand  -2.00924 5.81972 -20.8846
LeftUpLeg  -0.978974 2.42981 -1.49507
LeftLeg  0.511945 11.0495 -4.12308
LeftFoot  -0.145374 -0.47103 4.81187
LeftToes  1.46425e-010 1.43544e-010 6.23391e-011
178
root  -41.5926 41.4383 -6.04369 -160.525 -86.4215 161.176
RightUpLeg  1.52365 -8.48871 -6.94084
RightLeg  4.91237 0.788736 3.00686
RightFoot  -4.06856 -0.0155064 -0.356715
RightToes  2.91037e-010 0 -3.6325e-017
Spine  1.76539 4.00538 7.38727
Spine1  15.7694 7.66172 -9.80345
HEad  -17.8518 -9.52414 0.577469
LeftShoulder1  9.63678 -14.2737 -47.3101
LeftArm  -8.58549 15.8734 -24.2456
LeftForeArm  23.8203 -18.4571 -3.93748
LeftHand  -0.244104 0.0205437 5.32207
RightShoulder  7.29323 12.3416 39.8899
RightArm  1.95472 27.3424 33.2298
RightForeArm  -16.0864 59.5437 21.0165
RightHand  -2.12385 6.01822 -21.6695
LeftUpLeg  -0.981416 2.3375 -1.55638
LeftLeg  0.485346 11.2356 -4.02981
LeftFoot  -0.00908285 -0.488629 4.92243
LeftToes  1.46425e-010 1.43544e-010 6.23391e-011
179
root  -41.5631 41.439 -6.03153 -160.958 -86.39 161.591
RightUpLeg  1.52646 -8.49811 -6.94645
RightLeg  4.83226 0.823931 3.0246
RightFoot  -3.99374 -0.0150224 -0.362618
RightToes  2.91037e-010 0 -3.6325e-017
Spine  1.98392 4.06427 7.7498
Spine1  15.5508 7.78416 -10.0123
HEad  -17.8478 -10.2216 1.63174
LeftShoulder1  9.57163 -14.2528 -47.0402
LeftArm  -8.48403 15.4417 -24.4561
LeftForeArm  23.9571 -18.6463 -3.91632
LeftHand  -0.244104 0.0205437 5.32207
RightShoulder  7.31329 12.3459 39.998
RightArm  1.72207 26.6317 33.2061
RightForeArm  -15.3801 60.922 22.2703
RightHand  -2.13119 5.88955 -21.9765
LeftUpLeg  -1.02878 2.30844 -1.58404
LeftLeg  0.497937 11.3407 -4.00541
LeftFoot  0.0880264 -0.509138 5.07886
LeftToes  1.46425e-010 1.43544e-010 6.23391e-011
180
root  -41.5428 41.4385 -6.02046 -160.899 -86.3925 161.517
RightUpLeg  1.52138 -8.52067 -6.97259
RightLeg  4.81338 0.838347 3.03638
RightFoot  -3.97031 -0.0167912 -0.333355
RightToes  2.91037e-010 0 -3.6325e-017
Spine  2.01006 4.08525 7.91957
Spine1  15.4671 7.78157 -9.95803
HEad  -17.8068 -10.9083 2.69022
LeftShoulder1  9.54727 -14.2511 -46.9222
LeftArm  -8.47098 15.0553 -24.5636
LeftForeArm  23.9668 -18.9851 -3.87047
LeftHand  -0.244104 0.0205437 5.32207
RightShoulder  7.28838 12.3033 39.9666
RightArm  1.45312 25.7123 33.3326
RightForeArm  -12.9466 62.8931 24.1882
RightHand  -2.02552 5.42877 -21.7781
LeftUpLeg  -1.02725 2.34599 -1.57914
LeftLeg  0.453128 11.3152 -4.07393
LeftFoot  0.144406 -0.521727 5.17638
LeftToes  1.46425e-010 1.43544e-010 6.23391e-011
181
root  -41.5277 41.4374 -6.01307 -160.454 -86.4443 160.999
RightUpLeg  1.5779 -8.54532 -7.01167
RightLeg  4.83959 0.821782 3.03733
RightFoot  -3.98538 -0.0188377 -0.299622
RightToes  2.91037e-010 0 -3.6325e-017
Spine  1.97308 4.01364 7.94371
Spine1  15.4419 7.64635 -9.79871
HEad  -17.6363 -11.7026 3.57623
LeftShoulder1  9.51878 -14.2369 -46.8173
LeftArm  -8.62359 14.7338 -24.638
LeftForeArm  24.0044 -19.3889 -3.8068
LeftHand  -0.244104 0.0205437 5.32207
RightShoulder  7.27568 12.2794 39.9568
RightArm  1.10852 24.4292 33.5426
RightForeArm  -8.27592 65.3441 26.9034
RightHand  -1.95364 5.06953 -21.7238
LeftUpLeg  -0.932688 2.40175 -1.56224
LeftLeg  0.378853 11.1938 -4.15847
LeftFoot  0.166581 -0.52163 5.16458
LeftToes  1.46425e-010 1.43544e-010 6.23391e-011
182
root  -41.5118 41.4362 -6.00536 -159.566 -86.5597 159.995
RightUpLeg  1.68009 -8.57853 -7.06299
RightLeg  4.89 0.748134 3.03666
RightFoot  -4.01666 -0.019206 -0.29182
RightToes  2.91037e-010 0 -3.6325e-017
Spine  1.95232 3.85817 7.9498
Spine1  15.3742 7.43693 -9.70239
HEad  -17.4213 -12.6532 4.32761
LeftShoulder1  9.47336 -14.1894 -46.7164
LeftArm  -8.82731 14.4274 -24.6657
LeftForeArm  24.0898 -19.8516 -3.73969
LeftHand  -0.244104 0.0205437 5.32207
RightShoulder  7.29034 12.3188 39.9354
RightArm  0.769756 22.5028 33.7892
RightForeArm  -1.55972 68.0063 30.4751
RightHand  -1.92311 4.85194 -21.8304
LeftUpLeg  -0.807668 2.4271 -1.5667
LeftLeg  0.32926 11.0301 -4.20333
LeftFoot  0.182351 -0.517859 5.11573
LeftToes  1.46425e-010 1.43544e-010 6.23391e-011
183
root  -41.497 41.4356 -5.99399 -157.867 -86.7272 158.195
RightUpLeg  1.76962 -8.64784 -7.15057
RightLeg  4.95854 0.639229 3.05422
RightFoot  -4.04877 -0.0180542 -0.307514
RightToes  2.91037e-010 0 -3.6325e-017
Spine  1.91325 3.68203 7.90535
Spine1  15.2284 7.17489 -9.54284
HEad  -17.3285 -13.6451 4.99659
LeftShoulder1  9.45086 -14.1444 -46.7245
LeftArm  -8.83394 14.1707 -24.6132
LeftForeArm  24.0455 -20.4639 -3.68747
LeftHand  -0.244104 0.0205437 5.32207
RightShoulder  7.30201 12.3706 39.8623
RightArm  0.52659 19.8939 33.9805
RightForeArm  6.38255 70.4949 34.7048
RightHand  -1.8389 4.42147 -21.785
LeftUpLeg  -0.708962 2.3918 -1.62865
LeftLeg  0.280189 10.8796 -4.20796
LeftFoot  0.228291 -0.520808 5.1243
LeftToes  1.46425e-010 1.43544e-010 6.23391e-011
184
root  -41.4864 41.4354 -5.97961 -155.349 -86.8959 155.614
RightUpLeg  1.82962 -8.75357 -7.28299
RightLeg  5.02792 0.557887 3.09108
RightFoot  -4.07412 -0.017379 -0.315717
RightToes  2.91037e-010 0 -3.6325e-017
Spine  1.8307 3.53226 7.74209
Spine1  15.02 6.87492 -9.20221
HEad  -17.3548 -14.6403 5.55598
LeftShoulder1  9.46077 -14.1317 -46.8093
LeftArm  -8.6015 13.9793 -24.5453
LeftForeArm  23.9313 -21.1684 -3.66153
LeftHand  -0.244104 0.0205437 5.32207
RightShoulder  7.29934 12.3646 39.863
RightArm  0.450334 16.7239 33.9812
RightForeArm  14.8653 72.5754 39.2096
RightHand  -1.75833 3.91343 -21.9534
LeftUpLeg  -0.637666 2.28246 -1.76134
LeftLeg  0.196808 10.8023 -4.17316
LeftFoot  0.31277 -0.532833 5.19894
LeftToes  1.46425e-010 1.43544e-010 6.23391e-011
185
root  -41.477 41.4342 -5.96453 -152.84 -86.995 153.057
RightUpLeg  1.86148 -8.84022 -7.41763
RightLeg  5.09525 0.528384 3.10339
RightFoot  -4.10665 -0.0191246 -0.286257
RightToes  2.91037e-010 0 -3.6325e-017
Spine  1.72014 3.41126 7.47952
Spine1  14.8147 6.57578 -8.76267
HEad  -17.4031 -15.6276 5.97831
LeftShoulder1  9.46351 -14.1157 -46.8668
LeftArm  -8.38456 13.7506 -24.5583
LeftForeArm  23.9936 -21.7412 -3.65295
LeftHand  -0.244104 0.0205437 5.32207
RightShoulder  7.2921 12.2992 40.0006
RightArm  0.699057 13.1207 33.8234
RightForeArm  22.8078 74.0225 42.8946
RightHand  -1.75581 3.58876 -22.6828
LeftUpLeg  -0.5822 2.13346 -1.92752
LeftLeg  0.110167 10.8206 -4.11077
LeftFoot  0.398225 -0.545825 5.28201
LeftToes  1.46425e-010 1.43544e-010 6.23391e-011
186
root  -41.4642 41.4306 -5.94978 -151.44 -86.9896 151.585
RightUpLeg  1.87201 -8.85306 -7.49909
RightLeg  5.19042 0.516931 3.04347
RightFoot  -4.17127 -0.0230928 -0.222238
RightToes  2.91037e-010 0 -3.6325e-017
Spine  1.58838 3.29065 7.141
Spine1  14.6969 6.2712 -8.27547
HEad  -17.4851 -16.3889 6.25067
LeftShoulder1  9.4419 -14.0453 -46.949
LeftArm  -8.37813 13.4238 -24.646
LeftForeArm  24.1273 -22.06 -3.65108
LeftHand  -0.244104 0.0205437 5.32207
RightShoulder  7.27832 12.2188 40.1414
RightArm  1.41236 9.45981 33.7125
RightForeArm  27.2867 74.2746 42.7863
RightHand  -1.69826 3.15027 -23.0457
LeftUpLeg  -0.516628 2.02959 -2.05672
LeftLeg  0.0678282 10.8841 -4.07193
LeftFoot  0.426393 -0.551847 5.32594
LeftToes  1.46425e-010 1.43544e-010 6.23391e-011
187
root  -41.4479 41.4243 -5.93363 -151.564 -86.914 151.586
RightUpLeg  1.89778 -8.80825 -7.51792
RightLeg  5.31633 0.507209 2.93648
RightFoot  -4.25581 -0.026643 -0.164691
RightToes  2.91037e-010 0 -3.6325e-017
Spine  1.44487 3.13301 6.76901
Spine1  14.6763 5.91946 -7.73846
HEad  -17.6452 -16.7024 6.33869
LeftShoulder1  9.41792 -13.9361 -47.1268
LeftArm  -8.49546 13.0881 -24.7595
LeftForeArm  24.0504 -22.1813 -3.65746
LeftHand  -0.244104 0.0205437 5.32207
RightShoulder  7.26496 12.1604 40.2243
RightArm  2.5122 6.30607 33.7431
RightForeArm  26.0059 72.485 36.5152
RightHand  -1.43471 2.25992 -21.718
LeftUpLeg  -0.412697 2.03225 -2.10065
LeftLeg  0.091463 10.9257 -4.09092
LeftFoot  0.362505 -0.548463 5.32597
LeftToes  1.46425e-010 1.43544e-010 6.23391e-011
188
root  -41.4274 41.4169 -5.9128 -153.03 -86.8253 152.904
RightUpLeg  1.94961 -8.76545 -7.49938
RightLeg  5.41651 0.541019 2.86806
RightFoot  -4.30652 -0.0273989 -0.150535
RightToes  2.91037e-010 0 -3.6325e-017
Spine  1.30681 2.93012 6.52467
Spine1  14.6772 5.56135 -7.33238
HEad  -17.8011 -16.7167 6.30645
LeftShoulder1  9.40011 -13.8594 -47.2476
LeftArm  -8.56457 12.8059 -24.9456
LeftForeArm  23.9608 -22.1268 -3.65999
LeftHand  -0.244104 0.0205437 5.32207
RightShoulder  7.26983 12.1255 40.3518
RightArm  3.9517 3.88275 33.9112
RightForeArm  21.1353 67.8283 26.9338
RightHand  -1.03445 0.985801 -18.806
LeftUpLeg  -0.328789 2.13181 -2.05496
LeftLeg  0.220987 10.9328 -4.14011
LeftFoot  0.214668 -0.538494 5.30503
LeftToes  1.46425e-010 1.43544e-010 6.23391e-011
189
root  -41.3991 41.4088 -5.88665 -155.535 -86.7271 155.312
RightUpLeg  1.96639 -8.74421 -7.45901
RightLeg  5.45519 0.658922 2.87524
RightFoot  -4.30223 -0.0261996 -0.166764
RightToes  2.91037e-010 0 -3.6325e-017
Spine  1.15228 2.71375 6.50523
Spine1  14.6488 5.27938 -7.23099
HEad  -17.8012 -16.6979 6.32066
LeftShoulder1  9.38497 -13.86 -47.1685
LeftArm  -8.51571 12.512 -25.2447
LeftForeArm  24.2652 -21.8332 -3.64238
LeftHand  -0.244104 0.0205437 5.32207
RightShoulder  7.27783 12.0686 40.5613
RightArm  6.12366 2.28876 34.3517
RightForeArm  14.8552 59.648 18.2837
RightHand  -0.724638 -0.118439 -16.0236
LeftUpLeg  -0.374158 2.29257 -1.93828
LeftLeg  0.493986 10.9314 -4.19067
LeftFoot  0.0124777 -0.524733 5.27417
LeftToes  1.46425e-010 1.43544e-010 6.23391e-011
